solid house
  facet normal 0.000000 -1.000000 0.000000
    outer loop
      vertex -5.000000 0.000000 0.000000
      vertex 5.000000 0.000000 0.000000
      vertex 5.000000 0.000000 4.000000
    endloop
  endfacet
  facet normal 0.000000 -1.000000 0.000000
    outer loop
      vertex -5.000000 0.000000 0.000000
      vertex 5.000000 0.000000 4.000000
      vertex -5.000000 0.000000 4.000000
    endloop
  endfacet
  facet normal 0.000000 -1.000000 0.000000
    outer loop
      vertex -4.850000 0.150000 0.150000
      vertex 4.850000 0.150000 0.150000
      vertex 4.850000 0.150000 3.850000
    endloop
  endfacet
  facet normal 0.000000 -1.000000 0.000000
    outer loop
      vertex -4.850000 0.150000 0.150000
      vertex 4.850000 0.150000 3.850000
      vertex -4.850000 0.150000 3.850000
    endloop
  endfacet
  facet normal 0.000000 1.000000 0.000000
    outer loop
      vertex 5.000000 8.000000 0.000000
      vertex -5.000000 8.000000 0.000000
      vertex -5.000000 8.000000 4.000000
    endloop
  endfacet
  facet normal 0.000000 1.000000 -0.000000
    outer loop
      vertex 5.000000 8.000000 0.000000
      vertex -5.000000 8.000000 4.000000
      vertex 5.000000 8.000000 4.000000
    endloop
  endfacet
  facet normal 0.000000 1.000000 0.000000
    outer loop
      vertex 4.850000 7.850000 0.150000
      vertex -4.850000 7.850000 0.150000
      vertex -4.850000 7.850000 3.850000
    endloop
  endfacet
  facet normal 0.000000 1.000000 -0.000000
    outer loop
      vertex 4.850000 7.850000 0.150000
      vertex -4.850000 7.850000 3.850000
      vertex 4.850000 7.850000 3.850000
    endloop
  endfacet
  facet normal -1.000000 0.000000 0.000000
    outer loop
      vertex -5.000000 8.000000 0.000000
      vertex -5.000000 0.000000 0.000000
      vertex -5.000000 0.000000 4.000000
    endloop
  endfacet
  facet normal -1.000000 0.000000 0.000000
    outer loop
      vertex -5.000000 8.000000 0.000000
      vertex -5.000000 0.000000 4.000000
      vertex -5.000000 8.000000 4.000000
    endloop
  endfacet
  facet normal -1.000000 0.000000 0.000000
    outer loop
      vertex -4.850000 7.850000 0.150000
      vertex -4.850000 0.150000 0.150000
      vertex -4.850000 0.150000 3.850000
    endloop
  endfacet
  facet normal -1.000000 0.000000 0.000000
    outer loop
      vertex -4.850000 7.850000 0.150000
      vertex -4.850000 0.150000 3.850000
      vertex -4.850000 7.850000 3.850000
    endloop
  endfacet
  facet normal 1.000000 0.000000 0.000000
    outer loop
      vertex 5.000000 0.000000 0.000000
      vertex 5.000000 8.000000 0.000000
      vertex 5.000000 8.000000 4.000000
    endloop
  endfacet
  facet normal 1.000000 0.000000 0.000000
    outer loop
      vertex 5.000000 0.000000 0.000000
      vertex 5.000000 8.000000 4.000000
      vertex 5.000000 0.000000 4.000000
    endloop
  endfacet
  facet normal 1.000000 0.000000 0.000000
    outer loop
      vertex 4.850000 0.150000 0.150000
      vertex 4.850000 7.850000 0.150000
      vertex 4.850000 7.850000 3.850000
    endloop
  endfacet
  facet normal 1.000000 0.000000 0.000000
    outer loop
      vertex 4.850000 0.150000 0.150000
      vertex 4.850000 7.850000 3.850000
      vertex 4.850000 0.150000 3.850000
    endloop
  endfacet
  facet normal 0.000000 0.000000 1.000000
    outer loop
      vertex -5.000000 0.000000 4.000000
      vertex 5.000000 0.000000 4.000000
      vertex 4.850000 0.150000 4.000000
    endloop
  endfacet
  facet normal 0.000000 0.000000 1.000000
    outer loop
      vertex -5.000000 0.000000 4.000000
      vertex 4.850000 0.150000 4.000000
      vertex -4.850000 0.150000 4.000000
    endloop
  endfacet
  facet normal 0.000000 0.000000 1.000000
    outer loop
      vertex 5.000000 8.000000 4.000000
      vertex -5.000000 8.000000 4.000000
      vertex -4.850000 7.850000 4.000000
    endloop
  endfacet
  facet normal 0.000000 0.000000 1.000000
    outer loop
      vertex 5.000000 8.000000 4.000000
      vertex -4.850000 7.850000 4.000000
      vertex 4.850000 7.850000 4.000000
    endloop
  endfacet
  facet normal 0.000000 0.000000 1.000000
    outer loop
      vertex -5.000000 8.000000 4.000000
      vertex -5.000000 0.000000 4.000000
      vertex -4.850000 0.150000 4.000000
    endloop
  endfacet
  facet normal 0.000000 0.000000 1.000000
    outer loop
      vertex -5.000000 8.000000 4.000000
      vertex -4.850000 0.150000 4.000000
      vertex -4.850000 7.850000 4.000000
    endloop
  endfacet
  facet normal 0.000000 -0.000000 1.000000
    outer loop
      vertex 5.000000 0.000000 4.000000
      vertex 5.000000 8.000000 4.000000
      vertex 4.850000 7.850000 4.000000
    endloop
  endfacet
  facet normal 0.000000 0.000000 1.000000
    outer loop
      vertex 5.000000 0.000000 4.000000
      vertex 4.850000 7.850000 4.000000
      vertex 4.850000 0.150000 4.000000
    endloop
  endfacet
  facet normal 0.000000 0.000000 -1.000000
    outer loop
      vertex -5.000000 0.000000 0.000000
      vertex -5.000000 8.000000 0.000000
      vertex 5.000000 8.000000 0.000000
    endloop
  endfacet
  facet normal 0.000000 0.000000 -1.000000
    outer loop
      vertex -5.000000 0.000000 0.000000
      vertex 5.000000 8.000000 0.000000
      vertex 5.000000 0.000000 0.000000
    endloop
  endfacet
  facet normal 0.000000 -0.600000 0.800000
    outer loop
      vertex -5.000000 0.000000 4.000000
      vertex 5.000000 0.000000 4.000000
      vertex 0.000000 4.000000 7.000000
    endloop
  endfacet
  facet normal -0.514496 0.000000 0.857493
    outer loop
      vertex -5.000000 0.000000 4.000000
      vertex 0.000000 4.000000 7.000000
      vertex -5.000000 8.000000 4.000000
    endloop
  endfacet
  facet normal 0.514496 -0.000000 0.857493
    outer loop
      vertex 5.000000 0.000000 4.000000
      vertex 5.000000 8.000000 4.000000
      vertex 0.000000 4.000000 7.000000
    endloop
  endfacet
  facet normal 0.000000 0.600000 0.800000
    outer loop
      vertex 5.000000 8.000000 4.000000
      vertex -5.000000 8.000000 4.000000
      vertex 0.000000 4.000000 7.000000
    endloop
  endfacet
  facet normal 0.000000 0.614650 -0.788800
    outer loop
      vertex 4.850000 0.150000 3.850000
      vertex -4.850000 0.150000 3.850000
      vertex 0.000000 4.000000 6.850000
    endloop
  endfacet
  facet normal 0.526053 0.000000 -0.850452
    outer loop
      vertex -4.850000 0.150000 3.850000
      vertex -4.850000 7.850000 3.850000
      vertex 0.000000 4.000000 6.850000
    endloop
  endfacet
  facet normal -0.526053 -0.000000 -0.850452
    outer loop
      vertex 4.850000 7.850000 3.850000
      vertex 4.850000 0.150000 3.850000
      vertex 0.000000 4.000000 6.850000
    endloop
  endfacet
  facet normal 0.000000 -0.614650 -0.788800
    outer loop
      vertex -4.850000 7.850000 3.850000
      vertex 4.850000 7.850000 3.850000
      vertex 0.000000 4.000000 6.850000
    endloop
  endfacet
  facet normal 1.000000 0.000000 0.000000
    outer loop
      vertex -1.000000 0.000000 0.000000
      vertex -1.000000 0.150000 0.000000
      vertex -1.000000 0.150000 3.000000
    endloop
  endfacet
  facet normal 1.000000 0.000000 0.000000
    outer loop
      vertex -1.000000 0.000000 0.000000
      vertex -1.000000 0.150000 3.000000
      vertex -1.000000 0.000000 3.000000
    endloop
  endfacet
  facet normal -1.000000 0.000000 0.000000
    outer loop
      vertex 1.000000 0.150000 0.000000
      vertex 1.000000 0.000000 0.000000
      vertex 1.000000 0.000000 3.000000
    endloop
  endfacet
  facet normal -1.000000 0.000000 0.000000
    outer loop
      vertex 1.000000 0.150000 0.000000
      vertex 1.000000 0.000000 3.000000
      vertex 1.000000 0.150000 3.000000
    endloop
  endfacet
  facet normal 0.000000 -1.000000 0.000000
    outer loop
      vertex -1.000000 0.150000 0.000000
      vertex 1.000000 0.150000 0.000000
      vertex 1.000000 0.150000 3.000000
    endloop
  endfacet
  facet normal 0.000000 -1.000000 0.000000
    outer loop
      vertex -1.000000 0.150000 0.000000
      vertex 1.000000 0.150000 3.000000
      vertex -1.000000 0.150000 3.000000
    endloop
  endfacet
  facet normal 1.000000 0.000000 0.000000
    outer loop
      vertex -5.000000 2.000000 1.000000
      vertex -5.000000 5.000000 1.000000
      vertex -5.000000 5.000000 3.000000
    endloop
  endfacet
  facet normal 1.000000 0.000000 0.000000
    outer loop
      vertex -5.000000 2.000000 1.000000
      vertex -5.000000 5.000000 3.000000
      vertex -5.000000 2.000000 3.000000
    endloop
  endfacet
  facet normal -1.000000 0.000000 0.000000
    outer loop
      vertex -4.850000 5.000000 1.000000
      vertex -4.850000 2.000000 1.000000
      vertex -4.850000 2.000000 3.000000
    endloop
  endfacet
  facet normal -1.000000 0.000000 0.000000
    outer loop
      vertex -4.850000 5.000000 1.000000
      vertex -4.850000 2.000000 3.000000
      vertex -4.850000 5.000000 3.000000
    endloop
  endfacet
  facet normal 0.000000 -1.000000 0.000000
    outer loop
      vertex -5.000000 2.000000 1.000000
      vertex -4.850000 2.000000 1.000000
      vertex -4.850000 2.000000 3.000000
    endloop
  endfacet
  facet normal 0.000000 -1.000000 0.000000
    outer loop
      vertex -5.000000 2.000000 1.000000
      vertex -4.850000 2.000000 3.000000
      vertex -5.000000 2.000000 3.000000
    endloop
  endfacet
  facet normal 0.000000 1.000000 0.000000
    outer loop
      vertex -4.850000 5.000000 1.000000
      vertex -5.000000 5.000000 1.000000
      vertex -5.000000 5.000000 3.000000
    endloop
  endfacet
  facet normal 0.000000 1.000000 -0.000000
    outer loop
      vertex -4.850000 5.000000 1.000000
      vertex -5.000000 5.000000 3.000000
      vertex -4.850000 5.000000 3.000000
    endloop
  endfacet
  facet normal 0.000000 0.000000 -1.000000
    outer loop
      vertex -5.000000 2.000000 3.000000
      vertex -5.000000 5.000000 3.000000
      vertex -4.850000 5.000000 3.000000
    endloop
  endfacet
  facet normal 0.000000 0.000000 -1.000000
    outer loop
      vertex -5.000000 2.000000 3.000000
      vertex -4.850000 5.000000 3.000000
      vertex -4.850000 2.000000 3.000000
    endloop
  endfacet
  facet normal 0.000000 -0.000000 1.000000
    outer loop
      vertex -4.850000 2.000000 1.000000
      vertex -4.850000 5.000000 1.000000
      vertex -5.000000 5.000000 1.000000
    endloop
  endfacet
  facet normal 0.000000 0.000000 1.000000
    outer loop
      vertex -4.850000 2.000000 1.000000
      vertex -5.000000 5.000000 1.000000
      vertex -5.000000 2.000000 1.000000
    endloop
  endfacet
  facet normal -1.000000 0.000000 0.000000
    outer loop
      vertex 5.000000 5.000000 1.000000
      vertex 5.000000 2.000000 1.000000
      vertex 5.000000 2.000000 3.000000
    endloop
  endfacet
  facet normal -1.000000 0.000000 0.000000
    outer loop
      vertex 5.000000 5.000000 1.000000
      vertex 5.000000 2.000000 3.000000
      vertex 5.000000 5.000000 3.000000
    endloop
  endfacet
  facet normal 1.000000 0.000000 0.000000
    outer loop
      vertex 4.850000 2.000000 1.000000
      vertex 4.850000 5.000000 1.000000
      vertex 4.850000 5.000000 3.000000
    endloop
  endfacet
  facet normal 1.000000 0.000000 0.000000
    outer loop
      vertex 4.850000 2.000000 1.000000
      vertex 4.850000 5.000000 3.000000
      vertex 4.850000 2.000000 3.000000
    endloop
  endfacet
  facet normal 0.000000 -1.000000 0.000000
    outer loop
      vertex 4.850000 2.000000 1.000000
      vertex 5.000000 2.000000 1.000000
      vertex 5.000000 2.000000 3.000000
    endloop
  endfacet
  facet normal 0.000000 -1.000000 0.000000
    outer loop
      vertex 4.850000 2.000000 1.000000
      vertex 5.000000 2.000000 3.000000
      vertex 4.850000 2.000000 3.000000
    endloop
  endfacet
  facet normal 0.000000 1.000000 0.000000
    outer loop
      vertex 5.000000 5.000000 1.000000
      vertex 4.850000 5.000000 1.000000
      vertex 4.850000 5.000000 3.000000
    endloop
  endfacet
  facet normal 0.000000 1.000000 -0.000000
    outer loop
      vertex 5.000000 5.000000 1.000000
      vertex 4.850000 5.000000 3.000000
      vertex 5.000000 5.000000 3.000000
    endloop
  endfacet
  facet normal 0.000000 -0.000000 1.000000
    outer loop
      vertex 5.000000 2.000000 3.000000
      vertex 5.000000 5.000000 3.000000
      vertex 4.850000 5.000000 3.000000
    endloop
  endfacet
  facet normal 0.000000 0.000000 1.000000
    outer loop
      vertex 5.000000 2.000000 3.000000
      vertex 4.850000 5.000000 3.000000
      vertex 4.850000 2.000000 3.000000
    endloop
  endfacet
  facet normal 0.000000 0.000000 -1.000000
    outer loop
      vertex 4.850000 5.000000 1.000000
      vertex 5.000000 5.000000 1.000000
      vertex 5.000000 2.000000 1.000000
    endloop
  endfacet
  facet normal 0.000000 0.000000 -1.000000
    outer loop
      vertex 4.850000 5.000000 1.000000
      vertex 5.000000 2.000000 1.000000
      vertex 4.850000 2.000000 1.000000
    endloop
  endfacet
endsolid house
